<?xml version="1.0" standalone="no"?><!DOCTYPE svg PUBLIC "-//W3C//DTD SVG 1.1//EN" "http://www.w3.org/Graphics/SVG/1.1/DTD/svg11.dtd"><svg t="1767593423116" class="icon" viewBox="0 0 1024 1024" version="1.1" xmlns="http://www.w3.org/2000/svg" p-id="28668" xmlns:xlink="http://www.w3.org/1999/xlink" width="200" height="200"><path d="M478.727118 257.232627a102.378492 102.378492 0 0 0-78.506532-16.332772 100.304895 100.304895 0 0 0-69.476148 51.524179l-52.906577 101.017427-59.118832-74.700672c-32.115145-40.016998-86.948118-53.740708-134.122438-33.574343a108.991814 108.991814 0 0 0-29.717282 183.299954l118.847797 110.090478a135.556035 135.556035 0 0 0 118.359264 33.183944 133.264839 133.264839 0 0 0 88.490516-61.800428l75.842004-126.532051 95.935836 63.148692 198.57246-39.406866z m0 0" fill="#E69112" p-id="28669"></path><path d="M666.993463 645.615964a204.64605 204.64605 0 0 0 34.918341-57.275636c17.339704-43.140193 33.873009-86.600385 53.949774-128.55018L853.327012 255.999563l-85.333188-85.333188-203.799118 97.467567c-41.941262 20.074632-85.333188 36.607937-128.541648 53.949774a204.334584 204.334584 0 0 0-57.275635 34.916207l-2.916262 1.399465 0.667732 0.667732c-56.983369 50.414847-81.284128 128.272848-63.093225 202.147921 18.193036 73.877207 75.867604 131.549642 149.742677 149.742678 73.86654 18.190902 151.733074-6.109856 202.150055-63.091092l0.665599 0.665598z m0 0" fill="#EB972A" p-id="28670"></path><path d="M966.886284 86.600385a42.092728 42.092728 0 0 1-29.493283-29.491149A53.173242 53.173242 0 0 0 892.354145 17.290637a51.163646 51.163646 0 0 0-39.3258 13.077311A51.157246 51.157246 0 0 0 836.260374 68.26655v0.292266a74.11614 74.11614 0 0 1-20.040499 53.883641L767.993824 170.666375l85.333188 85.333188 48.226051-48.223918A74.11614 74.11614 0 0 1 955.43457 187.733013h0.292267c14.434109 0.008533 28.191952-6.084256 37.900735-16.767972s14.457575-24.966357 13.075178-39.332199a53.173242 53.173242 0 0 0-39.816466-45.03459z m0 0" fill="#F0DBC2" p-id="28671"></path><path d="M466.887138 405.149175L358.394524 307.199475l85.333187-85.333187V17.066638L188.560147 247.607044a101.401427 101.401427 0 0 0-32.422344 74.359339 101.431293 101.431293 0 0 0 38.414867 79.423865l92.159843 73.267074-88.068116 43.18286a114.067005 114.067005 0 0 0-63.756691 102.109692 114.047805 114.047805 0 0 0 63.274558 102.406225 114.075538 114.075538 0 0 0 119.850462-11.34078l136.255767-95.039838a134.36777 134.36777 0 0 0 12.650645-210.826306z m0 0" fill="#F09E3E" p-id="28672"></path><path d="M785.060462 716.798775h-238.932926c-56.558837 0-102.399825-45.840988-102.399825-102.399825v-136.5331c0-75.400405 61.124162-136.5331 136.5331-136.5331h327.199441c26.658088 0 48.266584 21.608496 48.266585 48.266584 0 12.799978-5.083725 25.08369-14.13331 34.133275L921.593562 443.732575v136.5331c0 75.408938-61.132696 136.5331-136.5331 136.5331z m0 0" fill="#FFB433" p-id="28673"></path><path d="M893.34401 1006.931613H130.635979L51.195049 494.932488h921.598425z m0 0" fill="#F05D46" p-id="28674"></path><path d="M68.261686 375.466025h34.133275v34.133275h-34.133275z m0 0M324.261249 187.733013h34.133275v34.133275h-34.133275z m0 0M238.928061 273.0662h34.133275v34.133275h-34.133275z m0 0M324.261249 375.466025h34.133275v34.133275h-34.133275z m0 0M597.327449 392.532663h34.133275v34.133275h-34.133275z m0 0M733.860549 409.5993h34.133275v34.133275h-34.133275z m0 0M682.660636 255.999563h34.133275v34.133275h-34.133275z m0 0" fill="#FFCC33" p-id="28675"></path><path d="M148.144216 634.27305l33.668209-5.608524 22.749828 136.5267-33.668209 5.614924z m0 0M136.760769 566.0001l33.676743-5.599991 5.68319 34.139675-33.674609 5.599991z m0 0" fill="#FF8B78" p-id="28676"></path><path d="M117.494669 922.249091L130.635979 1006.931613h762.708031l79.449464-511.999125h-130.44031c-199.750059 278.292858-561.940373 389.780667-724.858495 427.316603z m0 0" fill="#E3523B" p-id="28677"></path><path d="M42.66173 480.425846a15.78664 15.78664 0 0 0-8.398919 17.066637l79.440931 511.999126a17.066638 17.066638 0 0 0 16.932237 14.506642h762.708031a17.066638 17.066638 0 0 0 16.866104-14.449042l79.440931-511.999126a17.051704 17.051704 0 0 0-3.90826-13.71731 17.066638 17.066638 0 0 0-12.949311-5.966923h-34.133275v-27.05062l14.999441-15.016508a65.346022 65.346022 0 0 0 14.167443-71.199878A65.343888 65.343888 0 0 0 907.460252 324.266113h-67.790817l27.891152-58.282567 46.075655-46.075655A57.781235 57.781235 0 0 1 955.227637 204.79965a69.981747 69.981747 0 0 0 50.965247-22.282628 68.597216 68.597216 0 0 0 17.493303-52.467111 70.20788 70.20788 0 0 0-52.292177-59.925231 25.043157 25.043157 0 0 1-17.51677-17.525303A70.250547 70.250547 0 0 0 893.943476 0.309333a68.255883 68.255883 0 0 0-74.751873 68.351883 57.853768 57.853768 0 0 1-15.039974 41.712995l-46.073521 46.075655-201.24979 96.292102c-10.924781 5.224524-22.193029 9.966916-33.433543 14.833042l-34.901274-24.341292a119.026997 119.026997 0 0 0-29.015417-14.709308c0.883198-2.10773 1.324798-4.373326 1.316265-6.658122V17.066638a17.081571 17.081571 0 0 0-10.14185-15.592507 17.051704 17.051704 0 0 0-18.357302 2.933328L176.9527 235.092932a117.960332 117.960332 0 0 0-21.25863 26.542888 131.421642 131.421642 0 0 0-77.789734 7.850653 126.83925 126.83925 0 0 0-76.358269 97.279834A125.072853 125.072853 0 0 0 42.66173 480.425846zM878.717902 989.864976H145.262088L71.111815 511.999125H952.876708z m59.942297-600.248575a31.05488 31.05488 0 0 1-9.132784 22.067162l-19.999966 19.9829a17.068771 17.068771 0 0 0-5.000525 12.066112v34.133275h-443.732575c0.074667-65.949754 53.516709-119.391796 119.466462-119.466462h327.199441c17.224504 0.017067 31.191413 13.992509 31.199947 31.217013zM828.285988 134.500037A91.423844 91.423844 0 0 0 853.327012 68.26655a34.111942 34.111942 0 0 1 11.191447-25.284223 34.158875 34.158875 0 0 1 26.250622-8.691186 36.029805 36.029805 0 0 1 30.173815 27.30022 59.342832 59.342832 0 0 0 41.450596 41.45913 35.935939 35.935939 0 0 1 27.30662 30.141815 33.949809 33.949809 0 0 1-8.714652 26.316755 35.131673 35.131673 0 0 1-26.116222 11.140247 91.091044 91.091044 0 0 0-65.365222 25.041024l-36.177004 36.174872L792.130316 170.666375z m-256.733428 149.034412l192.85727-92.168376 68.26655 68.26655L801.751633 324.266113H580.260811a153.262672 153.262672 0 0 0-117.149666 54.474573l-36.983404-33.399409c5.124258-2.675195 10.466115-5.233058 15.87624-7.417588l23.756759-9.474117c34.916207-13.90931 71.024945-28.300752 105.79182-44.917256z m-85.333188-0.226133c-11.074114 4.507726-22.182362 9.058118-33.141277 13.41651l-23.893292 9.540251a220.276957 220.276957 0 0 0-29.798349 15.033574l-16.315706-14.732775 49.491116-49.493248a84.449989 84.449989 0 0 1 36.298604 14.186642zM199.994794 260.266222l226.66628-204.782583v159.317061l-80.332663 80.332662a17.066638 17.066638 0 0 0 0.633599 24.733825l96.966234 87.530517A152.456273 152.456273 0 0 0 426.661074 477.86585H303.320484c0-0.458666 0.2752-0.883198 0.324267-1.365331a17.066638 17.066638 0 0 0-6.350923-15.18504l-92.157709-73.267075A84.281456 84.281456 0 0 1 173.23004 325.332778 84.307056 84.307056 0 0 1 200.011861 260.266222z m-164.742118 111.790742a92.927841 92.927841 0 0 1 56.068171-71.116678 97.292634 97.292634 0 0 1 51.199912-6.833055 117.333133 117.333133 0 0 0 41.333263 120.618461l71.065479 56.46497-13.533844 6.675188H88.737384l0.682666-0.733865-23.325827-21.548763a91.44731 91.44731 0 0 1-30.841547-83.526258z m0 0" p-id="28678"></path><path d="M68.261686 375.466025h34.133275v34.133275h-34.133275z m0 0M324.261249 187.733013h34.133275v34.133275h-34.133275z m0 0M238.928061 273.0662h34.133275v34.133275h-34.133275z m0 0M324.261249 375.466025h34.133275v34.133275h-34.133275z m0 0M597.327449 392.532663h34.133275v34.133275h-34.133275z m0 0M733.860549 409.5993h34.133275v34.133275h-34.133275z m0 0M682.660636 255.999563h34.133275v34.133275h-34.133275z m0 0M148.137816 634.281583l33.663943-5.614924 22.783961 136.524567-33.663943 5.614924z m0 0M136.760769 565.991566l33.668209-5.59999 5.68319 34.141808-33.674609 5.599991z m0 0" p-id="28679"></path></svg>