<?xml version="1.0" standalone="no"?><!DOCTYPE svg PUBLIC "-//W3C//DTD SVG 1.1//EN" "http://www.w3.org/Graphics/SVG/1.1/DTD/svg11.dtd"><svg t="1767593135036" class="icon" viewBox="0 0 1024 1024" version="1.1" xmlns="http://www.w3.org/2000/svg" p-id="16876" xmlns:xlink="http://www.w3.org/1999/xlink" width="200" height="200"><path d="M968.304 459.68C904.848 255.2 802.288 115.584 667.152 147.68c-36.768 8.688-116.992 58.496-158.56 58.496-41.6 0-120.72-49.808-158.256-58.496C215.2 115.568 120.704 255.2 57.088 459.68c-63.6 204.512-7.744 428.08 129.088 428.08 116.672 0 132.032-161.664 321.952-161.664 189.904 0 205.568 161.664 322.56 161.664 137.6 0 201.072-223.728 137.6-428.064z" fill="#C9F0FF" p-id="16877"></path><path d="M830.688 903.28c-57.568 0-93.104-34.288-129.408-70.608-45.44-44.832-93.088-91.072-192.544-91.072-99.44 0-147.072 46.56-192.544 91.072-36.912 36.32-71.68 70.608-130.016 70.608a139.632 139.632 0 0 1-114.496-62.08C9.616 756.96-2.8 598.112 41.728 455.04 118.368 210.048 223.264 101.6 353.888 132.48a384 384 0 0 1 62.08 25.12c31.024 15.52 71.2 33.056 93.088 33.056 21.872 0 61.12-18.304 93.088-33.04a388.96 388.96 0 0 1 62.064-25.136c131.712-31.04 245.12 83.312 319.456 322.56 43.44 139.632 29.472 297.28-33.824 383.232a145.216 145.216 0 0 1-119.152 65.008zM508.736 710.56c112.8 0 169.12 55.392 214.272 99.92 35.056 34.432 62.064 62.064 107.68 62.064a113.888 113.888 0 0 0 93.088-52.288c57.872-78.512 69.808-224.816 29.168-355.76C913.216 336.352 823.392 126.592 670.4 163.04a383.68 383.68 0 0 0-56.16 22.96c-38.016 17.696-77.6 36-105.984 36s-67.328-18.608-104.88-36.304a383.68 383.68 0 0 0-56.16-22.96c-112.48-26.688-204.96 74.784-275.248 301.456-40.96 134.368-31.328 281.76 25.296 358.56a108.608 108.608 0 0 0 88.896 49.488c44.992 0 72.624-27.312 107.68-62.064 45.92-44.208 102.08-99.6 214.88-99.6z" fill="#0067FF" p-id="16878"></path><path d="M294.784 499.872m-108.608 0a108.608 108.608 0 1 0 217.216 0 108.608 108.608 0 1 0-217.216 0Z" fill="#FFFFFF" p-id="16879"></path><path d="M294.784 624a124.128 124.128 0 1 1 0-248.24 124.128 124.128 0 0 1 0 248.24z m0-217.216a93.088 93.088 0 1 0 0 186.192 93.088 93.088 0 0 0 0-186.192zM791.28 468.848h-46.56v-46.56a31.04 31.04 0 1 0-62.048 0v46.56h-46.56a31.04 31.04 0 1 0 0 62.064h46.56v46.544a31.04 31.04 0 1 0 62.048 0v-46.56h46.56a31.04 31.04 0 0 0 0-62.048z" fill="#0067FF" p-id="16880"></path><path d="M232.72 220.608m31.024 0l0.016 0q31.024 0 31.024 31.024l0 0.016q0 31.024-31.024 31.024l-0.016 0q-31.024 0-31.024-31.024l0-0.016q0-31.024 31.024-31.024Z" fill="#FFFFFF" p-id="16881"></path></svg>