<?xml version="1.0" standalone="no"?><!DOCTYPE svg PUBLIC "-//W3C//DTD SVG 1.1//EN" "http://www.w3.org/Graphics/SVG/1.1/DTD/svg11.dtd"><svg t="1767592975480" class="icon" viewBox="0 0 1024 1024" version="1.1" xmlns="http://www.w3.org/2000/svg" p-id="7303" xmlns:xlink="http://www.w3.org/1999/xlink" width="200" height="200"><path d="M901.12 0a122.88 122.88 0 0 1 122.88 122.88v778.24a122.88 122.88 0 0 1-122.88 122.88H122.88a122.88 122.88 0 0 1-122.88-122.88V122.88a122.88 122.88 0 0 1 122.88-122.88h778.24zM650.97728 342.7328c-6.9632-21.05344-57.05728-13.80352-85.15584-13.80352-23.90016 0-70.5536-3.85024-88.064 2.8672-25.74336 9.89184-33.93536 34.87744-47.14496 57.1392l-20.19328 34.75456-35.10272 0.49152c-19.90656 5.65248-15.23712 39.05536-14.88896 64.3072l-52.44928-15.70816c-6.4512-2.00704-14.5408-3.85024-18.30912 1.90464-4.5056 6.90176-1.4336 27.2384-1.4336 37.15072v88.59648c0 11.264-3.01056 33.64864 3.8912 38.64576 5.69344 4.096 13.88544-0.4096 19.70176-1.90464l48.59904-14.29504c-0.16384 19.59936-4.01408 50.9952 7.18848 60.0064 10.71104 8.54016 51.2 4.75136 70.69696 4.75136h155.8528c15.5648 0 55.5008 3.05152 66.39616-1.45408 14.31552-5.9392 12.4928-24.10496 12.4928-44.29824v-113.3568l25.51808 0.06144c4.4032 14.2336 24.9856 18.49344 34.14016 5.69344 3.29728-4.64896 2.41664-14.00832 2.41664-21.9136v-57.63072c-3.95264-16.15872-32.3584-16.85504-36.10624 0-5.61152 2.53952-18.06336 1.08544-25.4976 0.94208-3.46112-13.55776 0.04096-21.9136-9.60512-28.59008-9.29792-6.4512-42.496-3.35872-58.20416-3.35872h-150.528c3.6864-10.79296 26.624-52.14208 36.08576-55.25504l121.69216-0.49152c19.5584 0 31.45728 1.00352 37.0688-12.86144 1.08544-2.84672 2.29376-8.3968 0.94208-12.3904z m-142.39744 253.89056c44.3392-1.024 45.73184 54.90688 7.68 61.44-20.992 3.62496-38.89152-20.7872-31.744-40.93952 4.25984-12.04224 12.65664-15.29856 24.064-20.48z m97.5872 0c43.2128-1.00352 45.6704 53.51424 10.5472 61.00992-22.30272 4.75136-41.69728-16.50688-35.10272-38.6048 4.01408-13.39392 12.41088-16.896 24.576-22.40512z" fill="#F96761" p-id="7304"></path></svg>