<?xml version="1.0" standalone="no"?><!DOCTYPE svg PUBLIC "-//W3C//DTD SVG 1.1//EN" "http://www.w3.org/Graphics/SVG/1.1/DTD/svg11.dtd"><svg t="1767593216167" class="icon" viewBox="0 0 1024 1024" version="1.1" xmlns="http://www.w3.org/2000/svg" p-id="19812" xmlns:xlink="http://www.w3.org/1999/xlink" width="200" height="200"><path d="M512 0c282.784 0 512 229.216 512 512s-229.216 512-512 512S0 794.784 0 512 229.216 0 512 0z m-84.928 265.056c4.48-9.952-6.24-19.872-15.968-14.912A284.48 284.48 0 0 0 256 503.488c0 157.376 128 276.576 285.344 276.576 108.256 0 202.24-66.88 248.64-159.552 5.056-10.112-6.368-20.928-16.096-15.168-31.872 18.784-66.08 27.648-103.84 27.648-147.2 0-270.848-103.776-266.976-258.176 0.96-39.168 9.056-76.288 24-109.76z m170.24 172.16h-0.96c0 26.24-21.28 47.52-47.52 47.52v0.96c26.24 0 47.52 21.28 47.52 47.552h0.96c0-26.24 21.28-47.52 47.52-47.52v-0.96c-26.24 0-47.52-21.28-47.52-47.52z m146.176-62.72h-0.96c0 26.24-21.28 47.552-47.52 47.552v0.96c26.24 0 47.52 21.28 47.52 47.52h0.96c0-26.24 21.28-47.52 47.52-47.52v-0.96c-26.24 0-47.52-21.28-47.52-47.52zM656.736 224h-1.28a63.36 63.36 0 0 1-63.36 63.36v1.28a63.36 63.36 0 0 1 63.36 63.36h1.28a63.36 63.36 0 0 1 63.36-63.36v-1.28A63.36 63.36 0 0 1 656.736 224z" fill="#706EFF" p-id="19813"></path></svg>