<?xml version="1.0" standalone="no"?><!DOCTYPE svg PUBLIC "-//W3C//DTD SVG 1.1//EN" "http://www.w3.org/Graphics/SVG/1.1/DTD/svg11.dtd"><svg t="1767164579978" class="icon" viewBox="0 0 1024 1024" version="1.1" xmlns="http://www.w3.org/2000/svg" p-id="12854" xmlns:xlink="http://www.w3.org/1999/xlink" width="200" height="200"><path d="M915.078144 855.15264c34.132992-59.406336 15.22688-105.025536-45.220864-150.678528-71.057408-53.660672-140.500992-89.761792-190.43328-31.939584 0 0-52.989952 63.085568-208.927744-84.535296-181.328896-172.8512-105.22624-234.155008-105.22624-234.155008 63.060992-63.401984 22.976512-110.696448-29.915136-182.334464-52.887552-71.632896-106.313728-94.30528-183.013376-32.697344C4.540416 257.540096 212.950016 536.310784 318.32064 644.7104l-0.004096 0.004096c0 0 160.234496 165.740544 261.066752 220.919808l53.941248 30.157824c77.366272 39.701504 164.267008 57.875456 225.446912 21.009408C858.771456 916.80256 888.262656 901.63712 915.078144 855.15264z" fill="#0072EF" p-id="12855"></path><path d="M568.69888 357.972992l-46.445568 0c-10.227712 0-18.51904-8.291328-18.51904-18.51904s8.291328-18.51904 18.51904-18.51904l46.445568 0c10.227712 0 18.51904 8.291328 18.51904 18.51904S578.926592 357.972992 568.69888 357.972992z" fill="#0072EF" p-id="12856"></path><path d="M671.58528 357.972992l-46.446592 0c-10.227712 0-18.51904-8.291328-18.51904-18.51904s8.291328-18.51904 18.51904-18.51904l46.446592 0c10.227712 0 18.51904 8.291328 18.51904 18.51904S681.812992 357.972992 671.58528 357.972992z" fill="#0072EF" p-id="12857"></path><path d="M774.470656 357.972992l-46.446592 0c-10.227712 0-18.51904-8.291328-18.51904-18.51904s8.291328-18.51904 18.51904-18.51904l46.446592 0c10.227712 0 18.51904 8.291328 18.51904 18.51904S784.699392 357.972992 774.470656 357.972992z" fill="#0072EF" p-id="12858"></path><path d="M568.69888 425.04704l-46.445568 0c-10.227712 0-18.51904-8.291328-18.51904-18.51904s8.291328-18.51904 18.51904-18.51904l46.445568 0c10.227712 0 18.51904 8.291328 18.51904 18.51904S578.926592 425.04704 568.69888 425.04704z" fill="#0072EF" p-id="12859"></path><path d="M671.58528 425.04704l-46.446592 0c-10.227712 0-18.51904-8.291328-18.51904-18.51904s8.291328-18.51904 18.51904-18.51904l46.446592 0c10.227712 0 18.51904 8.291328 18.51904 18.51904S681.812992 425.04704 671.58528 425.04704z" fill="#0072EF" p-id="12860"></path><path d="M774.470656 425.04704l-46.446592 0c-10.227712 0-18.51904-8.291328-18.51904-18.51904s8.291328-18.51904 18.51904-18.51904l46.446592 0c10.227712 0 18.51904 8.291328 18.51904 18.51904S784.699392 425.04704 774.470656 425.04704z" fill="#0072EF" p-id="12861"></path><path d="M568.69888 494.67904l-46.445568 0c-10.227712 0-18.51904-8.291328-18.51904-18.51904s8.291328-18.51904 18.51904-18.51904l46.445568 0c10.227712 0 18.51904 8.291328 18.51904 18.51904S578.926592 494.67904 568.69888 494.67904z" fill="#0072EF" p-id="12862"></path><path d="M671.58528 494.67904l-46.446592 0c-10.227712 0-18.51904-8.291328-18.51904-18.51904s8.291328-18.51904 18.51904-18.51904l46.446592 0c10.227712 0 18.51904 8.291328 18.51904 18.51904S681.812992 494.67904 671.58528 494.67904z" fill="#0072EF" p-id="12863"></path><path d="M774.470656 494.67904l-46.446592 0c-10.227712 0-18.51904-8.291328-18.51904-18.51904s8.291328-18.51904 18.51904-18.51904l46.446592 0c10.227712 0 18.51904 8.291328 18.51904 18.51904S784.699392 494.67904 774.470656 494.67904z" fill="#0072EF" p-id="12864"></path><path d="M671.58528 568.40704l-46.446592 0c-10.227712 0-18.51904-8.291328-18.51904-18.51904s8.291328-18.51904 18.51904-18.51904l46.446592 0c10.227712 0 18.51904 8.291328 18.51904 18.51904S681.812992 568.40704 671.58528 568.40704z" fill="#0072EF" p-id="12865"></path></svg>